<?xml version="1.0" encoding="utf-8"?>
<!-- Generator: Adobe Illustrator 23.0.2, SVG Export Plug-In . SVG Version: 6.00 Build 0)  -->
<svg version="1.1" id="Layer_1" xmlns="http://www.w3.org/2000/svg" xmlns:xlink="http://www.w3.org/1999/xlink" x="0px" y="0px"
	 viewBox="0 0 635.5 138.7" style="enable-background:new 0 0 635.5 138.7;" xml:space="preserve">
<style type="text/css">
	.st0{fill:#1A2650;}
	.st1{fill:#DC213F;}
</style>
<g>
	<polygon class="st0" points="79.6,6.7 30.1,6.7 75.5,86.2 79.6,86.2 	"/>
	<polygon class="st1" points="0,6.6 0,86.2 50.8,86.2 4.9,6.6 	"/>
	<polygon class="st0" points="146.5,6.4 162.2,6.4 162.2,85.9 150.3,85.9 116.2,37.3 116.2,85.9 100.5,85.9 100.5,6.4 112.4,6.4 
		146.5,54.8 	"/>
	<path class="st0" d="M183,63.5c2,7.1,7.3,10.7,16,10.7c5.6,0,9.8-1.9,12.7-5.7l11.8,6.8c-5.6,8.1-13.9,12.2-24.8,12.2
		c-9.4,0-16.9-2.8-22.6-8.5c-5.7-5.7-8.5-12.8-8.5-21.5c0-8.6,2.8-15.7,8.4-21.4s12.8-8.6,21.6-8.6c8.3,0,15.2,2.9,20.6,8.6
		c5.4,5.8,8.1,12.9,8.1,21.4c0,1.9-0.2,3.9-0.6,6H183z M182.8,52.2h29c-0.8-3.9-2.6-6.7-5.2-8.6c-2.6-1.9-5.6-2.8-8.9-2.8
		c-3.9,0-7.2,1-9.8,3C185.3,45.7,183.6,48.5,182.8,52.2"/>
	<path class="st0" d="M264,27.5c7.6,0,14.2,2.9,19.6,8.7c5.4,5.8,8.1,12.9,8.1,21.3S289,73,283.6,78.8c-5.4,5.8-11.9,8.7-19.6,8.7
		c-7.9,0-14.1-2.8-18.4-8.3v29.4H231V29.1h14.6v6.7C249.9,30.3,256,27.5,264,27.5 M250,69c3,3,6.7,4.5,11.2,4.5s8.3-1.5,11.3-4.5
		s4.5-6.8,4.5-11.5s-1.5-8.5-4.5-11.5s-6.8-4.5-11.3-4.5S252.9,43,250,46c-3,3-4.4,6.8-4.4,11.5S247,66,250,69"/>
	<path class="st0" d="M341.1,29.1h14.6v56.8h-14.6v-6.7c-4.4,5.5-10.6,8.3-18.5,8.3c-7.6,0-14.1-2.9-19.5-8.7
		c-5.4-5.8-8.1-12.9-8.1-21.3s2.7-15.5,8.1-21.3c5.4-5.8,11.9-8.7,19.5-8.7c8,0,14.1,2.8,18.5,8.3V29.1z M314.1,69
		c3,3,6.7,4.5,11.2,4.5s8.3-1.5,11.3-4.5s4.5-6.8,4.5-11.5s-1.5-8.5-4.5-11.5s-6.8-4.5-11.3-4.5S317,43,314.1,46
		c-3,3-4.4,6.8-4.4,11.5S311.2,66,314.1,69"/>
	<rect x="363.4" y="6.5" class="st0" width="14.7" height="79.4"/>
	<polygon class="st0" points="432.4,6.4 448.1,6.4 448.1,85.9 436.2,85.9 402.1,37.3 402.1,85.9 386.5,85.9 386.5,6.4 398.4,6.4 
		432.4,54.8 	"/>
	<path class="st0" d="M468.9,63.5c2,7.1,7.3,10.7,16,10.7c5.6,0,9.8-1.9,12.7-5.7l11.8,6.8c-5.6,8.1-13.9,12.2-24.8,12.2
		c-9.4,0-16.9-2.8-22.6-8.5s-8.5-12.8-8.5-21.5c0-8.6,2.8-15.7,8.4-21.4c5.6-5.7,12.8-8.6,21.6-8.6c8.3,0,15.2,2.9,20.6,8.6
		c5.4,5.8,8.1,12.9,8.1,21.4c0,1.9-0.2,3.9-0.6,6C511.6,63.5,468.9,63.5,468.9,63.5z M468.7,52.2h29c-0.8-3.9-2.6-6.7-5.2-8.6
		s-5.6-2.8-8.9-2.8c-3.9,0-7.2,1-9.8,3C471.2,45.7,469.5,48.5,468.7,52.2"/>
	<polygon class="st0" points="578.5,29.1 592.5,29.1 576,85.9 561.5,85.9 550.9,51.5 540.2,85.9 525.7,85.9 509.1,29.1 524.5,29.1 
		534.3,64 544.7,29.1 558.5,29.1 568.9,64.1 	"/>
	<path class="st0" d="M606.3,45.2c0,1.5,1,2.7,3,3.7c2,0.9,4.4,1.8,7.3,2.5s5.8,1.6,8.6,2.7c2.9,1.1,5.3,2.9,7.3,5.5s3,5.8,3,9.7
		c0,5.8-2.2,10.3-6.5,13.5c-4.4,3.1-9.8,4.7-16.3,4.7c-11.7,0-19.6-4.5-23.8-13.5l12.7-7.2c1.7,4.9,5.4,7.4,11.1,7.4
		c5.2,0,7.8-1.6,7.8-4.9c0-1.5-1-2.7-3-3.7c-2-0.9-4.5-1.8-7.3-2.6c-2.9-0.8-5.8-1.7-8.6-2.8c-2.9-1.1-5.3-2.9-7.3-5.4s-3-5.5-3-9.3
		c0-5.6,2.1-10,6.2-13.2s9.3-4.8,15.4-4.8c4.6,0,8.8,1,12.6,3.1s6.8,5.1,9,8.9L622,46.4c-1.8-3.9-4.8-5.8-9.1-5.8
		c-1.9,0-3.5,0.4-4.7,1.3C606.9,42.7,606.3,43.8,606.3,45.2"/>
	<g>
		<path class="st0" d="M11.8,121.9h2v16.4H12l-8.3-12.2v12.4H1.6v-16.4h1.6l8.6,12.4V121.9C11.7,121.9,11.8,121.9,11.8,121.9z"/>
		<path class="st0" d="M21.5,136.3h7.7v2h-9.8v-16.4H29v2h-7.5v4.9h6.9v2h-6.9C21.5,131,21.5,136.3,21.5,136.3z"/>
		<path class="st0" d="M39.3,121.9c1.4,0,2.8,0.5,3.7,1.4c1,1,1.4,2.3,1.4,3.7c0,1.4-0.5,2.8-1.4,3.7c-1,1-2.3,1.4-3.7,1.4h-3.7v5.9
			h-2v-16.4C33.5,121.9,39.3,121.9,39.3,121.9z M39.3,130.4c0.8,0,1.6-0.2,2.3-0.8s0.8-1.4,0.8-2.3s-0.2-1.8-0.8-2.4
			s-1.4-0.8-2.3-0.8h-3.7v6.5h3.7V130.4z"/>
		<path class="st0" d="M58.1,138.5l-1.4-3.6h-7.4l-1.4,3.6h-2.4l6.1-16.4h2.5l6.1,16.4H58.1z M50.2,132.7h5.9l-3-8.2L50.2,132.7z"/>
		<path class="st0" d="M66.4,136.3h7.1v2h-9.4v-16.4h2L66.4,136.3L66.4,136.3z"/>
		<path class="st0" d="M77.9,121.9l-1.4,5.8h-1.8l0.8-5.8H77.9z"/>
		<path class="st0" d="M87.3,138.7c-1.4,0-2.9-0.4-3.9-1.1c-1.1-0.8-1.9-1.8-2.3-3l1.9-1.1c0.6,2,2,3,4.3,3c1.1,0,2-0.2,2.5-0.8
			s0.8-1.1,0.8-1.9c0-0.8-0.2-1.4-0.8-1.8c-0.6-0.4-1.6-0.8-3-1.3c-0.6-0.2-1.3-0.4-1.6-0.5c-0.4-0.1-0.8-0.4-1.4-0.6
			c-0.5-0.2-1-0.5-1.3-0.8c-0.2-0.2-0.5-0.6-0.8-1.1c-0.4-0.5-0.4-1-0.4-1.6c0-1.4,0.5-2.5,1.4-3.4c1-0.8,2.3-1.3,3.6-1.3
			s2.4,0.4,3.4,1s1.6,1.4,2,2.5l-1.9,1c-0.8-1.8-2-2.5-3.7-2.5c-0.8,0-1.6,0.2-2,0.6c-0.5,0.4-0.8,1-0.8,1.8s0.2,1.3,0.8,1.6
			c0.5,0.4,1.4,0.8,2.5,1.1c0.5,0.1,0.8,0.2,1,0.4c0.2,0.1,0.5,0.1,0.8,0.4c0.4,0.1,0.8,0.2,0.8,0.4c0.1,0.1,0.5,0.2,0.8,0.4
			c0.4,0.1,0.5,0.4,0.8,0.5c0.1,0.1,0.4,0.4,0.5,0.6c0.2,0.2,0.4,0.5,0.5,0.8c0.1,0.3,0.1,0.5,0.2,0.8c0.1,0.2,0.1,0.6,0.1,1
			c0,1.4-0.5,2.5-1.6,3.4C90.4,138.3,89,138.7,87.3,138.7z"/>
		<path class="st0" d="M114.5,124h-7.2v5.4h7v2h-7v7h-2.2V122h9.5L114.5,124L114.5,124L114.5,124z"/>
		<path class="st0" d="M118.9,121.9h2v16.4h-2V121.9z"/>
		<path class="st0" d="M136.1,138.5l-3.6-6.3h-3.9v6.3h-2.3v-16.4h6.5c1.4,0,2.5,0.5,3.6,1.4c1,1,1.4,2.3,1.4,3.6c0,1-0.4,2-1,2.9
			c-0.6,0.8-1.4,1.4-2.5,1.9l3.9,6.5L136.1,138.5L136.1,138.5z M128.5,124v6.1h4.3c0.8,0,1.4-0.2,2-0.8s0.8-1.4,0.8-2
			c0-0.8-0.2-1.4-0.8-2s-1.3-0.8-2-0.8h-4.3V124z"/>
		<path class="st0" d="M147.5,138.7c-1.4,0-2.9-0.4-3.9-1.1c-1.1-0.8-1.9-1.8-2.3-3l1.9-1.1c0.6,2,2,3,4.3,3c1.1,0,2-0.2,2.5-0.8
			s0.8-1.1,0.8-1.9c0-0.8-0.2-1.4-0.8-1.8c-0.6-0.4-1.6-0.8-3-1.3c-0.6-0.2-1.3-0.4-1.6-0.5c-0.4-0.1-0.8-0.4-1.4-0.6
			c-0.5-0.2-1-0.5-1.3-0.8c-0.2-0.2-0.5-0.6-0.8-1.1c-0.4-0.5-0.4-1-0.4-1.6c0-1.4,0.5-2.5,1.4-3.4c1-0.8,2.3-1.3,3.6-1.3
			s2.4,0.4,3.4,1s1.6,1.4,2,2.5l-1.9,1c-0.8-1.8-2-2.5-3.7-2.5c-0.8,0-1.6,0.2-2,0.6c-0.5,0.4-0.8,1-0.8,1.8s0.2,1.3,0.8,1.6
			c0.5,0.4,1.4,0.8,2.5,1.1c0.5,0.1,0.8,0.2,1,0.4c0.2,0.1,0.5,0.1,0.8,0.4c0.4,0.1,0.8,0.2,0.8,0.4c0,0.1,0.5,0.2,0.8,0.4
			c0.4,0.1,0.5,0.4,0.8,0.5c0.1,0.1,0.4,0.4,0.5,0.6c0.2,0.2,0.4,0.5,0.5,0.8c0.1,0.3,0.1,0.5,0.2,0.8c0.1,0.3,0.1,0.6,0.1,1
			c0,1.4-0.5,2.5-1.6,3.4C150.6,138.3,149.1,138.7,147.5,138.7z"/>
		<path class="st0" d="M167.4,121.9v2h-4.8v14.6h-2V124h-4.8v-2L167.4,121.9L167.4,121.9z"/>
		<path class="st0" d="M192.6,136.2c-1.6,1.6-3.6,2.5-6,2.5s-4.3-0.8-6-2.5c-1.7-1.7-2.5-3.6-2.5-6c0-2.4,0.8-4.3,2.5-6
			s3.6-2.5,6-2.5s4.3,0.8,6,2.5s2.5,3.6,2.5,6C195.1,132.6,194.3,134.6,192.6,136.2z M182,134.7c1.3,1.3,2.8,1.9,4.5,1.9
			c1.8,0,3.3-0.6,4.5-1.9c1.3-1.3,1.9-2.8,1.9-4.5c0-1.8-0.6-3.4-1.9-4.5c-1.3-1.3-2.8-1.9-4.5-1.9c-1.8,0-3.3,0.6-4.5,1.9
			c-1.3,1.3-1.9,2.8-1.9,4.5C180.2,132,180.8,133.5,182,134.7z"/>
		<path class="st0" d="M209.7,121.9h2v16.4h-1.8l-8.3-12.3v12.3h-2v-16.4h1.6l8.6,12.4L209.7,121.9L209.7,121.9z"/>
		<path class="st0" d="M219.4,136.3h7.1v2h-9.3v-16.4h2v14.3L219.4,136.3L219.4,136.3z"/>
		<path class="st0" d="M230.5,121.9h2v16.4h-2V121.9z"/>
		<path class="st0" d="M248,121.9h2v16.4h-1.8l-8.3-12.3v12.3h-2v-16.4h1.6l8.6,12.4L248,121.9L248,121.9z"/>
		<path class="st0" d="M257.7,136.3h7.7v2h-9.8v-16.4h9.6v2h-7.5v4.9h6.9v2h-6.9V136.3C257.8,136.3,257.7,136.3,257.7,136.3z"/>
		<path class="st0" d="M287.6,121.9h2v16.4h-1.8l-8.3-12.3v12.3h-2v-16.4h1.6l8.6,12.4L287.6,121.9L287.6,121.9z"/>
		<path class="st0" d="M297.2,136.3h7.7v2h-9.8v-16.4h9.6v2h-7.5v4.9h6.9v2h-6.9V136.3L297.2,136.3z"/>
		<path class="st0" d="M312.6,138.5l-4.7-16.4h2.3l3.7,13.5l4-13.5h2.3l4,13.5l3.7-13.5h2l-4.7,16.4h-2.5l-3.9-13.1l-3.9,13.1H312.6
			L312.6,138.5z"/>
		<path class="st0" d="M339.3,138.7c-1.4,0-2.9-0.4-3.9-1.1c-1.1-0.8-1.9-1.8-2.3-3l1.9-1.1c0.6,2,2,3,4.3,3c1.1,0,2-0.2,2.5-0.8
			s0.8-1.1,0.8-1.9c0-0.8-0.2-1.4-0.8-1.8c-0.6-0.4-1.6-0.8-3-1.3c-0.6-0.2-1.3-0.4-1.6-0.5c-0.4-0.1-0.8-0.4-1.4-0.6
			c-0.5-0.2-1-0.5-1.3-0.8c-0.2-0.2-0.5-0.6-0.8-1.1c-0.2-0.5-0.4-1-0.4-1.6c0-1.4,0.5-2.5,1.4-3.4c1-0.8,2.3-1.3,3.6-1.3
			s2.4,0.4,3.4,1s1.6,1.4,2,2.5l-1.9,1c-0.8-1.8-2-2.5-3.7-2.5c-0.8,0-1.6,0.2-2,0.6c-0.5,0.4-0.8,1-0.8,1.8s0.2,1.3,0.8,1.6
			c0.5,0.4,1.4,0.8,2.5,1.1c0.5,0.1,0.8,0.2,1,0.4c0.2,0.1,0.5,0.1,0.8,0.4c0.4,0.1,0.8,0.2,0.8,0.4c0.1,0.1,0.5,0.2,0.8,0.4
			c0.2,0.1,0.5,0.4,0.8,0.5c0.1,0.1,0.4,0.4,0.5,0.6c0.2,0.2,0.4,0.5,0.5,0.8c0.1,0.2,0.1,0.5,0.2,0.8c0.1,0.2,0.1,0.6,0.1,1
			c0,1.4-0.5,2.5-1.6,3.4C342.3,138.3,340.8,138.7,339.3,138.7z"/>
		<path class="st0" d="M362.8,121.9c1.4,0,2.8,0.5,3.7,1.4c1,1,1.4,2.3,1.4,3.7c0,1.4-0.5,2.8-1.4,3.7c-1,1-2.3,1.4-3.7,1.4h-3.7
			v5.9h-2v-16.4C356.9,121.9,362.8,121.9,362.8,121.9z M362.8,130.4c0.8,0,1.6-0.2,2.3-0.8s0.8-1.4,0.8-2.3s-0.2-1.8-0.8-2.4
			s-1.4-0.8-2.3-0.8h-3.7v6.5h3.7V130.4z"/>
		<path class="st0" d="M386.2,136.2c-1.6,1.6-3.6,2.5-6,2.5s-4.3-0.8-6-2.5c-1.7-1.7-2.5-3.6-2.5-6c0-2.4,0.8-4.3,2.5-6
			s3.6-2.5,6-2.5s4.3,0.8,6,2.5c1.6,1.6,2.5,3.6,2.5,6C388.4,132.6,387.7,134.6,386.2,136.2z M375.4,134.7c1.3,1.3,2.8,1.9,4.5,1.9
			c1.8,0,3.3-0.6,4.5-1.9c1.3-1.3,1.9-2.8,1.9-4.5c0-1.8-0.6-3.4-1.9-4.5c-1.3-1.3-2.8-1.9-4.5-1.9c-1.8,0-3.3,0.6-4.5,1.9
			c-1.3,1.3-1.9,2.8-1.9,4.5C373.6,132,374.2,133.5,375.4,134.7z"/>
		<path class="st0" d="M402.7,138.5l-3.6-6.3h-3.9v6.3h-2v-16.4h6.5c1.4,0,2.5,0.5,3.6,1.4c1,1,1.4,2.3,1.4,3.6c0,1-0.4,2-1,2.9
			s-1.4,1.4-2.5,1.9l3.9,6.5L402.7,138.5L402.7,138.5z M395.1,124v6.1h4.3c0.8,0,1.4-0.2,2-0.8s0.8-1.4,0.8-2c0-0.8-0.2-1.4-0.8-2
			s-1.3-0.8-2-0.8h-4.3V124z"/>
		<path class="st0" d="M419.2,121.9v2h-4.8v14.6h-2V124h-4.9v-2L419.2,121.9L419.2,121.9L419.2,121.9z"/>
		<path class="st0" d="M432.7,138.5l-1.4-3.6h-7.4l-1.4,3.6h-2.4l6.1-16.4h2.5l6.1,16.4H432.7z M424.6,132.7h5.9l-3-8.2L424.6,132.7
			z"/>
		<path class="st0" d="M441,136.3h7.1v2h-9.3v-16.4h2L441,136.3L441,136.3z"/>
	</g>
</g>
<rect x="-55.8" class="st0" width="6" height="138.7"/>
<g>
	<polygon class="st0" points="-505.4,5.5 -554.9,5.5 -509.5,85 -505.4,85 	"/>
	<polygon class="st1" points="-585,5.4 -585,85 -534.2,85 -580.1,5.4 	"/>
	<g>
		<g>
			<path class="st0" d="M-279.6,26h-158.7c1.4-1.7,3.1-2.7,4.9-3c-3.2-1.8-6.3-4.6-9.4-8.3c-3.6-4.4-6.2-7.1-7.7-8.3
				c-3.3-2.6-7.4-4.2-12.4-4.9l-5.8,5.1c6,0.6,10.7,2.1,13.9,4.6c1.5,1.2,3.8,3.8,6.8,8c2.1,2.9,4.5,5.1,7,6.8h-42.4v6.5h46.4v10
				h-25.8c-5.2,0-9.5,1.8-13.1,5.4c-3.6,3.6-5.4,8-5.4,13.1c0,5,1.8,9.3,5.4,13s7.9,5.5,12.9,5.5c5.1,0,9.5-1.8,13.2-5.5
				c3.8-3.6,5.6-8,5.6-13.1c0-3.5-1-6.9-3-10.1h-9.9c3.8,2.2,5.7,5.5,5.7,9.7c0,3.3-1.1,6.1-3.3,8.4c-2.2,2.3-4.9,3.4-8.3,3.4
				c-3.3,0-6-1.1-8.1-3.3c-2.1-2.2-3.1-4.9-3.1-8.3c0-3.4,1-6.1,3.1-8.3c2.1-2.2,4.8-3.3,8.1-3.3h25.8v34.5h8.2V32.5h11.9v25.4
				c0,11.6,5.8,17.5,17.5,17.5c4,0,6.9-0.7,8.7-2v10.3h8.6V32.5h12.4v51.3h8.2V32.5h64.3v8.1c-7.4,0.1-13.2,3.2-17.4,9.3v-3.4
				c-4.1-3.9-9-5.8-14.7-5.8c-5.9,0-10.9,2-15.2,6.1c-4.3,4.1-6.4,9-6.4,14.9c0,5.8,2.1,11,6.4,15.3c4.2,4.4,9.2,6.6,15,6.6
				c3.6,0,7.2-1,10.7-2.9V71c-2.8,3.2-6.2,4.9-10.3,4.9c-3.9,0-7.1-1.3-9.8-4c-2.7-2.6-4-5.9-4-9.8s1.3-7.1,4-9.8c2.7-2.6,6-4,9.8-4
				c5.3,0,9.2,2.4,11.8,7.1c-0.7,2.2-1.1,4.9-1.1,8l8.8,4.1c-0.8-1.8-1.2-3.7-1.2-5.6c0-3.7,1.3-6.9,4-9.6c2.7-2.7,5.8-4.1,9.6-4.1
				v35.2h8.2v-51h9.5L-279.6,26L-279.6,26z M-390.8,60.8c0,2.4-0.9,4.2-2.6,5.5c-1.7,1.3-3.8,1.9-6.2,1.9c-2.5,0-4.6-0.7-6.3-2.1
				c-1.7-1.4-2.6-3.3-2.6-5.7V32.5h17.7V60.8L-390.8,60.8z"/>
			<path class="st0" d="M-360.2,85.3h-11.2V34h-9.4v51.2h-11.6v-9.4c-1.9,0.7-4.3,1.1-7.2,1.1c-12.4,0-19-6.6-19-19V34h-8.9v51.1
				h-11.2V50.6h-6.9c1.9,3.3,2.9,6.7,2.9,10.3c0,5.6-2,10.4-6.1,14.2c-3.9,3.9-8.7,5.9-14.2,5.9c-5.4,0-10.1-2-14-6s-5.8-8.7-5.8-14
				c0-5.5,2-10.3,5.8-14.2c3.9-3.9,8.6-5.8,14.2-5.8h24.3v-7h-46.4v-9.5h39.6c-1.4-1.3-2.8-2.8-3.9-4.4c-3.6-5.1-5.6-7-6.5-7.7
				c-2.9-2.3-7.3-3.7-13.1-4.3l-3.4-0.3l8.9-7.8l0.7,0.1c5.3,0.7,9.6,2.4,13.1,5.2c1.8,1.4,4.6,4.5,7.9,8.5c3.1,3.7,6,6.3,9,7.9
				l3.7,2.1l-4.2,0.7h-0.1H-278l-0.1,9.4h-9.5v51h-11.3V49.8c-2.7,0.3-4.9,1.5-7,3.6c-2.4,2.4-3.6,5.2-3.6,8.5c0,1.7,0.4,3.4,1.1,5
				l1.6,3.7l-13.3-6.2v-1c0-2.9,0.3-5.5,1-7.8c-2.3-3.9-5.7-5.8-10.2-5.8c-3.3,0-6.3,1.2-8.8,3.6c-2.4,2.4-3.5,5.2-3.5,8.7
				c0,3.6,1.2,6.4,3.5,8.7c2.4,2.4,5.2,3.6,8.8,3.6s6.6-1.4,9.2-4.4l2.6-3v14.6l-0.8,0.4c-3.8,2-7.6,3.1-11.4,3.1
				c-6.2,0-11.6-2.4-16.1-7.1c-4.5-4.5-6.8-10-6.8-16.3c0-6.4,2.2-11.6,6.9-16c4.6-4.4,9.9-6.5,16.2-6.5c6.1,0,11.4,2.1,15.7,6.2
				l0.4,0.4c3.9-4,8.7-6.2,14.5-6.6V34h-61.3L-360.2,85.3L-360.2,85.3z M-368.4,82.3h5.2V31h67.3v11.1h-1.5
				c-6.9,0.1-12.2,2.9-16.2,8.7l-2.7,3.9c0,0,0,0,0,0.1l0.3,0.6l-0.2,0.6c-0.6,1.9-0.9,4.1-1,6.6l4.8,2.3c-0.2-0.9-0.3-1.9-0.3-2.8
				c0-4.1,1.5-7.7,4.4-10.7c3.1-3.1,6.5-4.5,10.7-4.5h1.5v35.2h5.2v-51h9.5l0.1-3.4h-200.6v3.5h46.4v13h-27.3c-4.8,0-8.7,1.6-12,5
				c-3.3,3.3-5,7.3-5,12c0,4.6,1.6,8.5,5,12c3.3,3.4,7.2,5,11.8,5c4.8,0,8.7-1.7,12.1-5.1c3.5-3.3,5.2-7.2,5.2-12
				c0-3-0.8-5.9-2.4-8.6h-4.8c2,2.2,3,5,3,8.2c0,3.7-1.3,6.9-3.7,9.4c-2.5,2.6-5.6,3.9-9.4,3.9c-3.7,0-6.8-1.3-9.2-3.8
				s-3.5-5.5-3.5-9.3s1.1-6.9,3.5-9.3c2.4-2.5,5.5-3.8,9.2-3.8h27.3v34.5h5.2V31h14.9v26.9c0,10.8,5.2,16,16,16
				c3.6,0,6.3-0.6,7.8-1.7l2.4-1.7v11.7h5.6V31h15.4V82.3L-368.4,82.3z M-329.5,42.2c-5.5,0-10.2,1.9-14.2,5.7s-5.9,8.3-5.9,13.8
				s2,10.3,6,14.2c4,4.2,8.5,6.2,13.9,6.2c3,0,6.1-0.8,9.2-2.3v-5.3c-2.6,2-5.5,2.9-8.8,2.9c-4.3,0-7.9-1.5-10.9-4.4
				c-2.9-2.8-4.4-6.5-4.4-10.9c0-4.3,1.5-7.9,4.4-10.9c3.1-3,6.7-4.4,10.9-4.4c5.7,0,10.1,2.6,13,7.7v-7.3
				C-320,43.8-324.3,42.2-329.5,42.2z M-463,50.6c-2.9,0-5.2,0.9-7,2.8c-1.8,1.9-2.7,4.2-2.7,7.3c0,3,0.9,5.3,2.7,7.3
				c1.8,1.9,4.1,2.8,7,2.8c3,0,5.3-0.9,7.2-2.9s2.9-4.4,2.9-7.4c0-3.7-1.7-6.5-5-8.4l-2.6-1.5H-463z M-465.2,5.5
				c4.8,0.8,8.6,2.3,11.4,4.5c1.8,1.4,4.2,4.3,7.1,8.3c1.8,2.5,4.1,4.7,6.6,6.4l0.6,0.4l0.1-0.1c0.8-1,1.7-1.8,2.8-2.4
				c-2.4-1.7-4.8-4.1-7.2-7c-3.2-3.9-5.9-6.8-7.5-8.1c-2.9-2.3-6.5-3.8-11-4.5L-465.2,5.5z M-399.6,69.7c-2.8,0-5.3-0.8-7.3-2.4
				c-2.1-1.7-3.1-4-3.1-6.9V31h20.7v29.8c0,2.8-1.1,5.1-3.2,6.7C-394.4,69-396.8,69.7-399.6,69.7z M-407,34v26.4
				c0,1.9,0.7,3.4,2.1,4.5c1.4,1.2,3.2,1.8,5.3,1.8s3.9-0.5,5.3-1.6c1.4-1,2-2.4,2-4.3V34H-407z"/>
		</g>
		<g>
			<g>
				<path class="st0" d="M-275.7,47.9c-3.6,3.6-5.3,8-5.3,13.2c0,5,1.8,9.3,5.4,13s7.9,5.5,12.9,5.5c5.1,0,9.5-1.8,13.2-5.5
					c3.8-3.6,5.6-8,5.6-13.1c0-3.5-1-6.9-3-10.1h-9.9c3.8,2.2,5.7,5.5,5.7,9.7c0,3.3-1.1,6.1-3.3,8.4c-2.2,2.3-4.9,3.4-8.3,3.4
					s-6-1.1-8.1-3.3c-2.1-2.2-3.1-4.9-3.1-8.3c0-3.4,1-6.1,3.1-8.3s4.8-3.3,8.1-3.3h25.8v-6.8h-25.8
					C-267.8,42.5-272.2,44.3-275.7,47.9z"/>
				<path class="st0" d="M-262.7,81.1c-5.4,0-10.1-2-14-6s-5.8-8.7-5.8-14c0-5.7,1.9-10.4,5.7-14.3c3.7-3.8,8.5-5.8,14-5.9h27.3v9.8
					h-9.9c1.9,3.3,2.9,6.7,2.9,10.3c0,5.6-2,10.4-6.1,14.2C-252.4,79.1-257.2,81.1-262.7,81.1z M-262.7,43.9
					c-4.7,0.1-8.8,1.8-11.9,5l0,0c-3.3,3.3-4.9,7.2-4.9,12.1c0,4.6,1.6,8.5,5,12c3.3,3.4,7.2,5,11.8,5c4.8,0,8.7-1.7,12.1-5.1
					c3.5-3.3,5.2-7.2,5.2-12c0-3-0.8-5.9-2.4-8.6h-4.8c2,2.2,3,5,3,8.2c0,3.7-1.3,6.9-3.7,9.4c-2.5,2.6-5.6,3.9-9.4,3.9
					s-6.8-1.2-9.2-3.8c-2.4-2.5-3.5-5.5-3.5-9.3s1.1-6.9,3.5-9.3c2.4-2.5,5.5-3.8,9.2-3.8h24.3v-3.8L-262.7,43.9L-262.7,43.9z
					 M-262.7,50.7c-2.9,0-5.2,0.9-7,2.8c-1.8,1.9-2.7,4.2-2.7,7.3c0,3,0.9,5.3,2.7,7.3c1.8,1.9,4.1,2.8,7,2.8c3,0,5.3-0.9,7.2-2.9
					c1.9-2,2.9-4.4,2.9-7.4c0-3.7-1.7-6.5-5-8.4l-2.6-1.5H-262.7z"/>
			</g>
			<g>
				<path class="st0" d="M-182.7,88.2c-2.7,0-4.9,1.1-6.7,3.2v5.8l1.4,0.8c1-1.7,2.4-3.3,5.1-3.3c1.1,0,2.1,0.5,2.9,1.4
					c0.8,1,1.2,2,1.2,3.1c0,3-1.7,4.5-5,4.5c-3.4,0-6.6-1.2-9.6-3.7s-5-5.3-6.1-8.7h-7.6c1.3,5.3,4.2,9.7,8.4,13.3
					c4.3,3.6,9.1,5.3,14.5,5.3c3.5,0,6.5-1,9-2.9s3.7-4.6,3.7-8c0-2.9-1.1-5.5-3.4-7.7C-177.1,89.3-179.8,88.2-182.7,88.2z"/>
				<path class="st0" d="M-184.2,111.4c-5.9,0-10.9-1.8-15.5-5.6c-4.6-3.9-7.6-8.7-8.9-14.1l-0.5-1.9h10.6l0.3,1
					c1,3.1,2.8,5.6,5.6,8c2.5,2.1,5.8,3.5,9.2,3.3c0.6,0,1.1-0.1,1.6-0.4c1.3-0.6,1.7-2.3,1.3-3.6c-0.2-0.6-0.5-1.1-0.9-1.4
					c-1-0.8-2.3-0.7-3.4-0.1c-0.8,0.5-1.5,1.3-2,2.1c-0.1,0.1-0.7,1.3-0.7,1.3l-3.4-2v-7.2l0.4-0.4c2.1-2.5,4.8-3.7,7.8-3.7
					c3.3,0,6.3,1.2,8.8,3.5c2.6,2.5,3.9,5.4,3.9,8.8c0,3.9-1.4,7-4.3,9.2C-177.1,110.3-180.4,111.4-184.2,111.4z M-205.1,92.8
					c1.4,4,3.8,7.6,7.4,10.7c4,3.3,8.4,4.9,13.5,4.9c3.1,0,5.8-0.9,8.1-2.6c2.1-1.6,3.1-3.8,3.1-6.8c0-2.5-1-4.8-2.9-6.6
					c-1.9-1.7-4.3-2.7-6.8-2.7c-2,0-3.7,0.7-5.2,2.3v3.4c1-1.1,2.6-2.1,5-2.1c1.5,0,2.9,0.7,4,1.9c1.1,1.3,1.6,2.7,1.6,4.1
					c0,3.8-2.4,6-6.5,6c-3.8,0-7.3-1.4-10.6-4c-2.9-2.4-5-5.2-6.2-8.4h-4.5V92.8z"/>
			</g>
			<g>
				<path class="st0" d="M-103.8,26H-281v6.5h75.8c1.2,0.7,2.4,2.2,3.4,4.6c1.3,2.9,1.9,5.5,1.9,7.6c0,3.8-1.3,7-3.8,9.4
					c-2.5,2.5-5.7,3.7-9.5,3.7c-2.9,0-5.3-0.8-7.2-2.4s-2.9-3.9-2.9-6.7c0-0.9,0.1-1.8,0.4-2.9l-8.6,2c-0.1,0.7-0.1,1.4-0.1,2.1
					c0,2.9,0.9,6.7,2.6,11.3c2,5.2,5.6,9.3,10.8,12.6c5,3.2,10.4,4.8,16.1,4.8c6.2,0,11.7-1.8,16.4-5.5v10.5h8.6V32.5h52.9v9h-36.4
					v6.4h8.1c3.1,0,5.8,1.4,8.1,4.2c2.3,2.8,3.5,5.7,3.5,8.8c0,3.6-1.3,6.7-4,9.4s-5.8,4-9.4,4c-3.1,0-5.8-1-8.2-3s-3.8-4.5-4.3-7.5
					v15.5c3.6,2.5,7.8,3.7,12.6,3.7c6.2,0,11.4-2.1,15.7-6.4c4.3-4.2,6.4-9.4,6.4-15.6c0-4.8-1.5-9.1-4.4-13.1h12.2v35.7h8.2V32.5
					h10.8V26C-105.3,26-103.8,26-103.8,26z M-185.5,60c0,3.4-2.2,6.2-6.7,8.3c-3.7,1.8-7.5,2.7-11.3,2.7c-5.3,0-10-2.1-14.1-6.4
					c1.9,0.5,3.7,0.7,5.5,0.7c5.9,0,10.7-2.1,14.4-6.2c3.8-4.2,5.6-9.2,5.6-15.2c0-4-1-7.8-3-11.4h9.5L-185.5,60L-185.5,60z"/>
				<path class="st0" d="M-114.6,85.1h-11.2V49.4h-7.9c2.1,3.6,3.1,7.5,3.1,11.6c0,6.6-2.3,12.2-6.9,16.7
					c-4.5,4.5-10.2,6.8-16.7,6.8c-5.1,0-9.7-1.3-13.5-4l-0.6-0.4V63.8l3-0.2c0.4,2.7,1.7,4.8,3.8,6.6c2.1,1.8,4.5,2.7,7.2,2.7
					c3.2,0,5.9-1.2,8.3-3.6s3.6-5.1,3.6-8.3c0-2.7-1-5.3-3.2-7.8c-2-2.5-4.3-3.7-6.9-3.7h-9.6v-9.4h36.4v-6h-49.9v51.1h-11.6v-9.1
					c-4.4,2.7-9.4,4.1-14.9,4.1c-6,0-11.7-1.7-16.9-5c-5.6-3.5-9.3-7.9-11.4-13.3c-1.8-4.9-2.7-8.8-2.7-11.8c0-0.7,0-1.5,0.1-2.3
					l0.1-1l12-2.8l-0.7,2.4c-0.2,0.9-0.3,1.7-0.3,2.5c0,2.4,0.8,4.2,2.4,5.6c1.6,1.4,3.7,2,6.2,2c3.5,0,6.2-1.1,8.4-3.3
					c2.2-2.1,3.4-4.9,3.4-8.3c0-2-0.6-4.4-1.8-7c-0.9-2.2-1.9-3.2-2.5-3.7h-76.8v-9.5h178.7v9.5h-10.8L-114.6,85.1L-114.6,85.1z
					 M-122.8,82.1h5.2V31h10.8v-3.5h-172.7V31h74.7l0.4,0.2c1.6,0.9,3,2.8,4,5.3c1.3,2.9,2,5.8,2,8.2c0,4.2-1.5,7.8-4.3,10.5
					c-2.7,2.7-6.3,4.1-10.5,4.1c-3.3,0-6-0.9-8.2-2.8c-2.2-1.9-3.4-4.6-3.4-7.8c0-0.3,0-0.6,0-0.9l-5.3,1.2c0,0.3,0,0.6,0,0.9
					c0,2.7,0.8,6.3,2.5,10.8c1.8,4.8,5.2,8.7,10.2,11.9c4.7,3,9.9,4.6,15.3,4.6c5.9,0,11.1-1.7,15.5-5.2l2.4-1.9v12.1h5.6V31h55.9
					v12h-36.4v3.4h6.6c3.6,0,6.7,1.6,9.3,4.7c2.6,3.1,3.8,6.3,3.8,9.8c0,4-1.5,7.5-4.4,10.5c-2.9,2.9-6.5,4.4-10.5,4.4
					c-3.4,0-6.5-1.1-9.2-3.3c-0.7-0.6-1.3-1.2-1.8-1.8v7.9c3.2,2,6.8,3,11.1,3c5.8,0,10.6-2,14.6-6c4-3.9,6-8.7,6-14.5
					c0-4.4-1.3-8.4-4.1-12.2l-1.7-2.4h16.6L-122.8,82.1L-122.8,82.1z M-203.5,72.5c-5.7,0-10.8-2.3-15.2-6.9l-3.7-3.8l5.1,1.3
					c1.7,0.4,3.3,0.7,5.1,0.7c5.4,0,9.9-1.9,13.3-5.7c3.5-3.9,5.2-8.5,5.2-14.2c0-3.7-0.9-7.3-2.8-10.7l-1.2-2.2h13.5l0.1,29
					c0,4.1-2.5,7.3-7.6,9.7C-195.4,71.5-199.5,72.5-203.5,72.5z M-212.7,66.8c2.8,1.8,5.8,2.7,9.2,2.7c3.6,0,7.2-0.9,10.6-2.5
					c3.9-1.8,5.9-4.1,5.9-6.9l-0.1-26h-5.6c1.4,3.2,2.1,6.5,2.1,9.9c0,6.5-2,11.8-6,16.2s-9.2,6.7-15.5,6.7
					C-212.3,66.8-212.5,66.8-212.7,66.8z"/>
			</g>
		</g>
	</g>
	<g>
		<path class="st0" d="M-575.4,122.6h-9.6v-1.5h14.5v1.5h-3.1v14l-1.8-1.7V128h-5.2v3.2c0,0.4-0.1,0.6-0.4,0.7c-0.1,0-0.3,0-0.5-0.1
			c-0.2-0.1-0.3-0.2-0.3-0.4l-1.5-2.9c-0.1-0.2-0.2-0.6-0.2-0.9s0-0.6,0.1-0.8c0.1-0.2,0.2-0.3,0.4-0.4c0.2-0.1,0.3-0.1,0.5-0.1
			c0.2,0,0.4,0,0.5,0h6.5v-3.7H-575.4z"/>
		<path class="st0" d="M-579.1,117.2c-0.5-0.1-1-0.2-1.4-0.2c-0.1,0-0.3,0-0.4,0c-0.1,0-0.3,0-0.6,0.1l-0.9-2.1c0.3,0,0.7,0,1,0
			s0.7,0.1,1,0.1c0.4,0.1,0.7,0.2,1,0.4c0,0,0.5,0.4,1.5,1.2c0.5,0.4,0.9,0.8,1.3,1.1c0.2,0.3,0.6,0.7,1.1,1.3
			c0.2,0.2,0.3,0.4,0.5,0.6c0.2,0.3,0.5,0.7,0.7,1.1h-0.6c-0.4-0.7-0.9-1.3-1.5-1.8c-0.7-0.7-1.1-1.1-1.3-1.2
			C-578,117.5-578.6,117.3-579.1,117.2z"/>
		<path class="st0" d="M-568.9,122.6h-1.6v-1.5h13.3v1.5h-3.1v14l-1.6-1.7v-4.6c-0.7,0.4-1.4,0.5-2,0.5c-0.2,0-0.3,0-0.4,0
			c-1.3,0-2.5-0.6-3.4-1.7c-0.4-0.5-0.7-1-0.9-1.4c-0.2-0.4-0.3-0.9-0.3-1.5C-568.9,126.2-568.9,122.6-568.9,122.6z M-567.3,122.6
			v4.5c0,0.4,0,0.8,0.1,1.1c0.1,0.3,0.2,0.6,0.5,0.8c0.2,0.2,0.5,0.4,0.8,0.5s0.6,0.1,1.1,0.1c0.4,0,0.6,0,0.9-0.1s0.5-0.3,0.9-0.5
			c0.5-0.4,0.9-0.8,1.2-1.4v-5C-561.8,122.6-567.3,122.6-567.3,122.6z"/>
		<path class="st0" d="M-555.7,134.9v-12.3h-1.6v-1.5h6.4v1.5h-3v14L-555.7,134.9z"/>
		<path class="st0" d="M-539.3,122.6h-11.5v-1.5h16.4v1.5h-3.1v14l-1.8-1.7v-7.6c-0.3,0.1-0.6,0.2-0.8,0.3s-0.5,0.3-0.8,0.5
			c-0.4,0.4-0.8,0.8-1.1,1.4c-0.1,0.1-0.2,0.3-0.2,0.4c-0.1,0.3-0.3,0.5-0.3,0.8l-1.8-1.3l1-1.2c-0.2-0.5-0.5-0.9-1.1-1.1
			c-0.3-0.1-0.6-0.2-0.8-0.2c-0.1,0-0.4,0.1-0.8,0.2c-0.4,0.1-0.7,0.3-1,0.6c-0.2,0.3-0.4,0.5-0.4,0.8c-0.1,0.3-0.1,0.6-0.1,1.1
			c0,0.2,0.1,0.5,0.2,0.8c0.2,0.3,0.3,0.5,0.4,0.6c0.3,0.5,0.6,0.9,1.1,1.4c0,0,0.3,0.3,0.8,0.7l1.1,1l-0.4,0.6
			c-0.1-0.1-0.5-0.4-1.2-1c-0.4-0.4-0.8-0.7-1.1-1c-0.5-0.5-0.9-0.8-1-0.9c-0.6-0.6-1-1.2-1.2-1.9c-0.1-0.3-0.2-0.6-0.3-1
			c-0.1-0.3-0.2-0.6-0.2-0.9c0-0.3,0.1-0.6,0.2-0.9c0.3-0.8,0.9-1.3,1.7-1.6c0.4-0.1,0.6-0.1,0.8-0.1c0.4,0,0.8,0.1,1.3,0.3
			c0.5,0.2,1,0.5,1.5,1c0.4,0.4,0.6,0.7,0.8,1.1c0.2-0.2,0.4-0.4,0.7-0.6s0.5-0.4,0.7-0.5s0.4-0.2,0.7-0.4c0.3-0.2,0.5-0.3,0.7-0.3
			l0.9-0.2V122.6L-539.3,122.6z"/>
		<path class="st0" d="M-526.1,122.6h-8.3v-1.5h17.6v1.5h-7.4v4.2c0.3-0.2,0.6-0.4,1.1-0.5c0.4-0.1,0.9-0.2,1.4-0.2
			c1.3,0,2.3,0.7,2.9,2c0.3,0.5,0.4,1.1,0.4,1.7c0,0.8-0.3,1.5-0.9,2.2c-0.3,0.4-0.6,0.7-0.9,0.9c-0.3,0.2-0.7,0.4-1.1,0.5l-0.7-1.4
			c0.3-0.1,0.5-0.2,0.6-0.3c0.4-0.2,0.8-0.4,1.1-0.6c0.8-0.6,1.1-1.2,1.1-2c0-0.3-0.1-0.6-0.2-0.8c-0.2-0.3-0.4-0.5-0.7-0.6
			s-0.7-0.1-1.2-0.1h-0.4c-0.5,0-1,0.3-1.6,1c-0.2,0.2-0.5,0.5-0.8,1v7.1l-1.8-1.7v-3.3c-0.3,0.3-0.7,0.6-1.3,0.9
			c-0.6,0.3-1.2,0.4-1.8,0.4c-1,0-1.9-0.3-2.6-1c-0.7-0.7-1.1-1.5-1.1-2.5s0.2-1.8,0.7-2.6c0.4-0.8,1.1-1.1,1.9-1.1
			c1.3,0,2.2,0.5,2.7,1.6l-0.4,0.3c-0.4-0.1-0.7-0.1-1-0.1c-0.6,0-1.1,0.2-1.6,0.6c-0.7,0.6-1.1,1.3-1.1,2.1c0,0.5,0.1,0.9,0.4,1.2
			c0.1,0.2,0.3,0.3,0.5,0.4s0.4,0.1,0.6,0.1c0.4,0,0.7-0.1,1.1-0.3c0.4-0.2,0.8-0.4,1.3-0.7c0.5-0.3,0.9-0.7,1.2-1.3
			c0.3-0.4,0.5-0.8,0.6-1.2v-5.9H-526.1z"/>
		<path class="st0" d="M-515.3,134.9v-12.3h-1.6v-1.5h6.4v1.5h-3.1v14L-515.3,134.9z"/>
		<path class="st0" d="M-519.1,117.2c-0.5-0.1-1-0.2-1.4-0.2c-0.1,0-0.3,0-0.4,0c-0.1,0-0.3,0-0.6,0.1l-0.9-2.1c0.3,0,0.7,0,1,0
			c0.3,0,0.7,0.1,1,0.1c0.4,0.1,0.7,0.2,1,0.4c0,0,0.5,0.4,1.5,1.2c0.5,0.4,0.9,0.8,1.3,1.1c0.2,0.3,0.6,0.7,1.1,1.3
			c0.2,0.2,0.3,0.4,0.5,0.6c0.2,0.3,0.5,0.7,0.7,1.1h-0.5c-0.4-0.7-0.9-1.3-1.5-1.8c-0.7-0.7-1.1-1.1-1.3-1.2
			C-518,117.5-518.5,117.3-519.1,117.2z"/>
		<path class="st0" d="M-498.6,122.6h-1.6v-1.5h13.3v1.5h-3.1v14l-1.6-1.7v-4.6c-0.7,0.4-1.4,0.5-2,0.5c-0.2,0-0.3,0-0.4,0
			c-1.3,0-2.5-0.6-3.4-1.7c-0.4-0.5-0.7-1-0.9-1.4c-0.2-0.4-0.3-0.9-0.3-1.5C-498.6,126.2-498.6,122.6-498.6,122.6z M-497,122.6v4.5
			c0,0.4,0,0.8,0.1,1.1c0.1,0.3,0.2,0.6,0.5,0.8c0.2,0.2,0.5,0.4,0.8,0.5c0.3,0.1,0.6,0.1,1.1,0.1c0.4,0,0.6,0,0.9-0.1
			c0.2-0.1,0.5-0.3,0.9-0.5c0.5-0.4,0.9-0.8,1.2-1.4v-5C-491.5,122.6-497,122.6-497,122.6z"/>
		<path class="st0" d="M-485.4,134.8v-12.2h-1.5v-1.5h1.6c-0.2-0.3-0.3-0.6-0.5-0.9c-0.1-0.3-0.3-0.6-0.3-0.9
			c-0.1-0.3-0.2-0.6-0.2-0.9c-0.1-0.3-0.1-0.6-0.1-0.8c0-0.3,0.1-0.6,0.2-1c0.3-1,0.9-1.6,1.7-2c0.5-0.2,0.9-0.3,1.2-0.3
			c0.2,0,0.4,0,0.6,0.1c0.2,0.1,0.6,0.1,0.9,0.2c0.4,0.1,0.7,0.2,1.1,0.4c0.2,0.1,0.6,0.4,1.1,0.8s1,0.9,1.4,1.5
			c0.3,0.4,0.5,0.8,0.7,1.1c0.2,0.3,0.3,0.7,0.5,1.2c0.2,0.5,0.3,0.8,0.3,0.9c0.1,0.2,0.1,0.4,0.1,0.7h-0.3c-0.2-0.7-0.5-1.5-1-2.3
			c-0.1-0.2-0.3-0.5-0.4-0.7c-0.2-0.4-0.5-0.7-0.9-1c-0.2-0.2-0.4-0.4-0.7-0.6c-0.4-0.3-0.8-0.5-1.2-0.6s-0.7-0.1-1-0.1
			c-0.4,0-0.9,0.1-1.4,0.3c-0.9,0.4-1.4,1-1.7,1.8c0,0,0,0.2-0.1,0.4c0,0.2,0,0.4,0,0.5c0,0.3,0.1,0.7,0.2,1.1s0.4,0.8,0.8,1.2h2.9
			v1.5h-2.3v14L-485.4,134.8z"/>
		<path class="st0" d="M-473.6,122.6h-7.6v-1.5h12.5v1.5h-3.1v3.8h-4.7h-0.6c-0.2,0-0.5,0-0.6,0.1c-0.4,0.1-0.7,0.2-0.9,0.4
			c-0.2,0.1-0.3,0.3-0.4,0.6c-0.1,0.2-0.1,0.5,0,0.7c0.1,0.2,0.2,0.4,0.2,0.5c0.2,0.4,0.4,0.8,0.8,1.1c0.3-0.2,0.6-0.4,0.8-0.5
			c0.2-0.1,0.5-0.2,0.8-0.3c0.3-0.1,0.6-0.2,0.9-0.2c0.3-0.1,0.6-0.1,1-0.1c0.8,0,1.5,0.3,2.2,0.8c0.7,0.5,1.1,1.2,1.1,2.1
			c0,0.1,0,0.2,0,0.2s0,0.1,0,0.2c0,0.6-0.2,1.1-0.5,1.7c-0.2,0.4-0.5,0.8-1,1.1l-1.1-1.3c0.5-0.2,0.9-0.5,1.2-1
			c0.1-0.2,0.2-0.3,0.3-0.5c0.1-0.2,0.1-0.4,0.1-0.7c0-0.5-0.2-0.8-0.7-1.2c-0.2-0.2-0.5-0.3-0.8-0.3c-0.1,0-0.4,0-0.7,0.1
			c-0.3,0.1-0.5,0.1-0.7,0.2c-0.6,0.1-1,0.3-1.4,0.5c-0.4,0.2-0.7,0.6-1,1c-0.3,0.4-0.5,0.7-0.6,0.9c-0.1,0.2-0.2,0.5-0.2,0.9
			c0,0.3,0.1,0.6,0.2,0.9c0.1,0.2,0.3,0.5,0.5,0.9c0.2,0.2,0.4,0.4,0.6,0.6c0.2,0.1,0.5,0.3,0.8,0.5c0.2,0.1,0.5,0.2,0.7,0.3
			c0.2,0.1,0.4,0.2,0.7,0.2l-0.3,0.5c-0.4-0.1-0.7-0.2-0.9-0.2c-0.2-0.1-0.6-0.3-1.2-0.6c-0.3-0.2-0.6-0.3-0.9-0.5
			c-0.5-0.3-0.9-0.7-1.2-1.1c-0.4-0.7-0.7-1.4-0.7-2.1c0-0.2,0-0.6,0.1-1c0.1-0.5,0.4-1,1.1-1.6c-0.5-0.4-0.9-0.9-1.1-1.6
			c-0.1-0.2-0.1-0.5-0.2-0.7c-0.1-0.3-0.1-0.5-0.1-0.8c0-0.2,0-0.4,0-0.5s0.1-0.3,0.2-0.5c0.2-0.4,0.5-0.7,1-1
			c0.3-0.1,0.6-0.2,0.9-0.2c0.3,0,0.6,0,0.8,0h3.6L-473.6,122.6L-473.6,122.6z"/>
		<path class="st0" d="M-457.3,122.6h-11.5v-1.5h16.4v1.5h-3.1v14l-1.8-1.7v-7.6c-0.3,0.1-0.6,0.2-0.8,0.3c-0.2,0.1-0.5,0.3-0.8,0.5
			c-0.4,0.4-0.8,0.8-1.1,1.4c-0.1,0.1-0.2,0.3-0.2,0.4c-0.1,0.3-0.3,0.5-0.3,0.8l-1.8-1.3l1-1.2c-0.2-0.5-0.5-0.9-1.1-1.1
			c-0.3-0.1-0.6-0.2-0.8-0.2c-0.1,0-0.4,0.1-0.8,0.2c-0.4,0.1-0.7,0.3-1,0.6c-0.2,0.3-0.4,0.5-0.4,0.8c-0.1,0.3-0.1,0.6-0.1,1.1
			c0,0.2,0.1,0.5,0.2,0.8c0.2,0.3,0.3,0.5,0.4,0.6c0.3,0.5,0.6,0.9,1.1,1.4c0,0,0.3,0.3,0.8,0.7l1.1,1l-0.4,0.6
			c-0.1-0.1-0.5-0.4-1.2-1c-0.4-0.4-0.8-0.7-1.1-1c-0.5-0.5-0.9-0.8-1-0.9c-0.6-0.6-1-1.2-1.2-1.9c-0.1-0.3-0.2-0.6-0.3-1
			c-0.1-0.3-0.2-0.6-0.2-0.9c0-0.3,0.1-0.6,0.2-0.9c0.3-0.8,0.9-1.3,1.7-1.6c0.4-0.1,0.6-0.1,0.8-0.1c0.4,0,0.8,0.1,1.3,0.3
			c0.5,0.2,1,0.5,1.5,1c0.4,0.4,0.6,0.7,0.8,1.1c0.2-0.2,0.4-0.4,0.7-0.6c0.3-0.2,0.5-0.4,0.7-0.5c0.2-0.1,0.4-0.2,0.7-0.4
			c0.3-0.2,0.5-0.3,0.7-0.3l0.9-0.2L-457.3,122.6L-457.3,122.6z"/>
		<path class="st0" d="M-450.8,134.9v-12.3h-1.6v-1.5h6.4v1.5h-3.1v14L-450.8,134.9z"/>
		<path class="st0" d="M-454.6,117.2c-0.5-0.1-1-0.2-1.4-0.2c-0.1,0-0.3,0-0.4,0c-0.1,0-0.3,0-0.6,0.1l-0.9-2.1c0.3,0,0.7,0,1,0
			c0.3,0,0.7,0.1,1,0.1c0.4,0.1,0.7,0.2,1,0.4c0,0,0.5,0.4,1.5,1.2c0.5,0.4,0.9,0.8,1.3,1.1c0.2,0.3,0.6,0.7,1.1,1.3
			c0.2,0.2,0.3,0.4,0.5,0.6c0.2,0.3,0.5,0.7,0.7,1.1h-0.5c-0.4-0.7-0.9-1.3-1.5-1.8c-0.7-0.7-1.1-1.1-1.3-1.2
			C-453.5,117.5-454,117.3-454.6,117.2z"/>
		<path class="st0" d="M-424,126v-3.5h-1.6l-1-1.5h7.4v1.5h-3.1v14.1l-1.7-1.7v-5.8c-0.1,0.1-0.3,0.2-0.5,0.3
			c-0.2,0.1-0.4,0.2-0.7,0.2c-0.2,0.1-0.5,0.1-0.8,0.1c-0.2,0-0.4,0-0.5,0c0,0.3,0.1,0.5,0.1,0.7c0,0.6-0.2,1.3-0.7,1.9
			c-0.6,0.9-1.5,1.4-2.5,1.4c-1.1,0-2-0.4-2.8-1.3c-0.2-0.3-0.4-0.5-0.6-0.8c-0.1-0.3-0.3-0.7-0.5-1.2c-0.1-0.4-0.3-0.7-0.4-1.1
			c-0.1-0.4-0.2-0.7-0.3-1l0.4-0.2c0.1,0.2,0.1,0.4,0.2,0.6s0.1,0.3,0.2,0.5c0.3,0.7,0.5,1.1,0.5,1.2c0.1,0.1,0.2,0.3,0.4,0.5
			c0.4,0.4,0.7,0.7,1.1,0.9c0.3,0.2,0.7,0.3,1.2,0.3c0.6,0,1.2-0.2,1.7-0.6c0.5-0.4,0.7-0.9,0.7-1.5c0-0.5-0.2-1-0.5-1.5
			c-0.4-0.5-0.7-0.8-1-0.9c-0.4,0.2-0.7,0.3-0.9,0.4c-0.3,0.1-0.6,0.1-1,0.1l-1.2-1.7c0.2,0,0.6-0.1,1.2-0.2
			c0.6-0.2,1.1-0.3,1.3-0.4c0.6-0.3,1-0.5,1.2-0.7c0.4-0.3,0.6-0.7,0.6-1.1c0-0.7-0.3-1.3-0.9-1.5c-0.1-0.1-0.3-0.1-0.5-0.1
			c-0.3,0-0.6,0-0.8,0.1c-0.2,0-0.5,0.1-0.9,0.2s-0.7,0.2-0.9,0.3c-0.2,0.1-0.5,0.3-1,0.6l-1-1.4c0.5-0.3,0.9-0.5,1.4-0.7
			c0.5-0.1,1-0.2,1.6-0.2c0.7,0,1.3,0.1,1.9,0.3c0.5,0.2,1,0.6,1.4,1.1c0.2,0.3,0.4,0.6,0.6,0.8c0.1,0.2,0.2,0.5,0.2,0.8
			s-0.1,0.7-0.2,1.1s-0.3,0.8-0.6,1.2c-0.3,0.4-0.6,0.6-0.9,0.8c0.2,0.3,0.6,0.6,1.1,0.7c0.5,0.2,0.9,0.2,1.3,0.2c0.2,0,0.4,0,0.4,0
			c0.7-0.2,1.2-0.5,1.5-0.8C-424.2,127-424,126.6-424,126z"/>
		<path class="st0" d="M-409.6,122.6h-9.6v-1.5h14.5v1.5h-3.1v14l-1.8-1.7V128h-5.2v3.2c0,0.4-0.1,0.6-0.4,0.7c-0.1,0-0.3,0-0.5-0.1
			c-0.2-0.1-0.3-0.2-0.3-0.4l-1.5-2.9c-0.1-0.2-0.2-0.6-0.2-0.9s0-0.6,0.1-0.8s0.2-0.3,0.4-0.4c0.2-0.1,0.3-0.1,0.5-0.1
			c0.2,0,0.4,0,0.5,0h6.5v-3.7H-409.6z"/>
		<path class="st0" d="M-393.2,122.6h-11.5v-1.5h16.4v1.5h-3.1v14l-1.8-1.7v-7.6c-0.3,0.1-0.6,0.2-0.8,0.3c-0.2,0.1-0.5,0.3-0.8,0.5
			c-0.4,0.4-0.8,0.8-1.1,1.4c-0.1,0.1-0.2,0.3-0.2,0.4c-0.1,0.3-0.3,0.5-0.3,0.8l-1.8-1.3l1-1.2c-0.2-0.5-0.5-0.9-1.1-1.1
			c-0.3-0.1-0.6-0.2-0.8-0.2c-0.1,0-0.4,0.1-0.8,0.2c-0.4,0.1-0.7,0.3-1,0.6c-0.2,0.3-0.4,0.5-0.4,0.8c-0.1,0.3-0.1,0.6-0.1,1.1
			c0,0.2,0.1,0.5,0.2,0.8c0.2,0.3,0.3,0.5,0.4,0.6c0.3,0.5,0.6,0.9,1.1,1.4c0,0,0.3,0.3,0.8,0.7l1.1,1l-0.4,0.6
			c-0.1-0.1-0.5-0.4-1.2-1c-0.4-0.4-0.8-0.7-1.1-1c-0.5-0.5-0.9-0.8-1-0.9c-0.6-0.6-1-1.2-1.2-1.9c-0.1-0.3-0.2-0.6-0.3-1
			c-0.1-0.3-0.2-0.6-0.2-0.9c0-0.3,0.1-0.6,0.2-0.9c0.3-0.8,0.9-1.3,1.7-1.6c0.4-0.1,0.6-0.1,0.8-0.1c0.4,0,0.8,0.1,1.3,0.3
			c0.5,0.2,1,0.5,1.5,1c0.4,0.4,0.6,0.7,0.8,1.1c0.2-0.2,0.4-0.4,0.7-0.6c0.3-0.2,0.5-0.4,0.7-0.5c0.2-0.1,0.4-0.2,0.7-0.4
			c0.3-0.2,0.5-0.3,0.7-0.3l0.9-0.2L-393.2,122.6L-393.2,122.6z"/>
		<path class="st0" d="M-386.7,134.9v-12.3h-1.6v-1.5h6.4v1.5h-3v14L-386.7,134.9z"/>
		<path class="st0" d="M-374.2,122.6h-7.6v-1.5h12.5v1.5h-3.1v3.8h-3.8c-0.4,0-0.7,0-1,0.1c-0.3,0.1-0.6,0.1-0.7,0.2
			c-0.6,0.3-0.8,0.8-0.7,1.6c0.1,0.6,0.5,0.9,1.1,1.1c0.1,0,0.5,0,1.2-0.2c0.7-0.2,1.2-0.3,1.5-0.3c0.8,0,1.6,0.1,2.2,0.4
			c0.3,0.1,0.6,0.4,0.8,0.6c0.2,0.3,0.4,0.6,0.5,0.9s0.2,0.7,0.2,1c0,0.2,0,0.5,0,0.7c0,0.2-0.1,0.5-0.3,0.8
			c-0.1,0.1-0.3,0.4-0.6,0.9c-0.2,0.2-0.5,0.5-0.9,0.9c-0.1,0.1-0.3,0.2-0.6,0.4l2.5,2.5l-0.6,0.7l-2.6-2.6
			c-0.3,0.2-0.5,0.3-0.7,0.4c-0.2,0.1-0.5,0.1-0.8,0.1c-0.4,0-0.8,0-1.1-0.1c-0.3-0.1-0.6-0.2-0.9-0.5c-0.3-0.2-0.5-0.4-0.6-0.6
			c-0.2-0.2-0.3-0.4-0.3-0.7c-0.1-0.3-0.1-0.5-0.1-0.6c0-0.4,0.1-0.8,0.4-1c0.3-0.3,0.6-0.4,1-0.4c0.3,0,0.6,0.1,1.1,0.2
			c0.4,0.1,0.9,0.4,1.4,1c0.1,0.1,0.2,0.2,0.3,0.4c0.3-0.1,0.5-0.3,0.7-0.4c0,0,0.2-0.2,0.6-0.5c0.2-0.2,0.4-0.3,0.6-0.5
			c0.2-0.2,0.4-0.4,0.4-0.7c0.1-0.2,0.1-0.5,0.1-0.7c0-0.4-0.1-0.7-0.3-0.9c-0.2-0.2-0.5-0.3-0.8-0.3c-0.1,0-0.2,0-0.3,0
			c-0.2,0-0.3,0.1-0.4,0.1c-0.1,0-0.5,0.1-1.1,0.3c-0.3,0.1-0.5,0.2-0.8,0.2h-0.5c-0.2,0-0.3,0-0.5,0c-0.2,0-0.5-0.1-0.8-0.2
			c-0.4-0.2-0.7-0.4-0.9-0.6c-0.2-0.2-0.5-0.6-0.8-1c-0.3-0.5-0.5-0.8-0.5-0.9c-0.2-0.3-0.2-0.7-0.2-1.1c0-0.4,0.1-0.8,0.2-1
			c0.1-0.3,0.3-0.5,0.6-0.7c0.2-0.1,0.3-0.2,0.5-0.2c0.2,0,0.3-0.1,0.5-0.1c0.3,0,0.5,0,0.7,0h3.6v-2.5H-374.2z"/>
		<path class="st0" d="M-359.7,122.6h-9.6v-1.5h14.5v1.5h-3.1v14l-1.8-1.7V128h-5.2v3.2c0,0.4-0.1,0.6-0.4,0.7c-0.1,0-0.3,0-0.5-0.1
			c-0.2-0.1-0.3-0.2-0.3-0.4l-1.5-2.9c-0.1-0.2-0.2-0.6-0.2-0.9s0-0.6,0.1-0.8s0.2-0.3,0.4-0.4c0.2-0.1,0.3-0.1,0.5-0.1
			c0.2,0,0.4,0,0.5,0h6.5L-359.7,122.6L-359.7,122.6z"/>
		<path class="st0" d="M-338.8,128.4l0.8-0.9c0.7,0.6,1.5,0.9,2.4,0.9c0.4,0,0.7,0,0.9-0.1c0.3-0.1,0.5-0.2,0.8-0.4
			c0.5-0.4,0.8-0.9,0.8-1.4v-3.8h-4.6c0.4,0.8,0.6,1.7,0.6,2.6s-0.5,1.9-1.5,3.1c-0.8,0.9-1.4,1.4-1.8,1.6c0,0.4,0.1,0.7,0.2,1
			c0,0.1,0.1,0.3,0.3,0.6c0.1,0.1,0.2,0.3,0.4,0.5c0.2,0.2,0.3,0.3,0.4,0.5l3.1,3.7l-0.4,0.4l-3.4-3.8c-1-1.2-1.8-2-2.2-2.5
			s-0.7-0.9-0.8-1.1c-0.1-0.2-0.2-0.4-0.3-0.6s-0.1-0.4-0.1-0.6c0-0.1,0-0.2,0.1-0.3c0.1-0.4,0.3-0.6,0.4-0.8s0.4-0.2,0.7-0.2
			c0.2,0,0.4,0,0.6,0h1.4c0.7-0.5,1.1-1.1,1.1-1.8c0-0.6-0.1-1.1-0.2-1.4c-0.1-0.3-0.3-0.6-0.7-0.9h-4.9v-1.5h16.4v1.5h-3.1v14
			l-1.8-1.7v-5.7c-0.3,0.1-0.5,0.2-0.8,0.3c-0.3,0.1-0.5,0.2-0.9,0.2c-0.3,0-0.6,0-0.7,0c-0.3,0-0.7-0.1-1.2-0.2
			C-337.3,129.6-338.1,129.1-338.8,128.4z"/>
		<path class="st0" d="M-324.2,122.6h-4v-1.5h15.8v1.5h-3.1v14l-1.7-1.7v-4.8h-5.2v2.1c0,0.5-0.1,0.7-0.2,0.8s-0.3,0.1-0.5,0
			s-0.4-0.2-0.5-0.3l-2.6-3.3c-0.2-0.3-0.3-0.5-0.3-0.5c-0.1-0.2-0.1-0.3-0.1-0.4s0.1-0.2,0.3-0.2c0.2,0,0.4,0,0.6,0h1.5
			L-324.2,122.6L-324.2,122.6z M-317.2,128.3v-5.6h-5.2v5.6H-317.2z"/>
		<path class="st0" d="M-310.8,134.9v-12.3h-1.6v-1.5h6.4v1.5h-3.1v14L-310.8,134.9z"/>
		<path class="st0" d="M-295.1,122.6h-10.8v-1.5h10.8V122.6z M-304.3,126.9l-0.8-1.7h9.6v1.7c-0.1,0-0.3,0-0.5,0s-0.4,0-0.7,0
			c-0.6,0-1.1,0-1.6,0.1s-0.8,0.1-1,0.3c-0.4,0.3-0.7,0.6-0.9,0.9c-0.3,0.4-0.4,0.7-0.4,1.1c0,0.2,0.1,0.5,0.2,0.8
			c0.2,0.6,0.7,0.9,1.4,0.9c0.5,0.1,1.1-0.1,1.7-0.4c0.3-0.1,0.6-0.4,1.1-0.7c0.7-0.4,1.1-0.8,1.5-1c0.4-0.3,0.8-0.7,1.1-1v2.3
			c-0.3,0.3-0.7,0.6-1.1,0.8c-0.3,0.2-0.7,0.4-1.1,0.6c-0.5,0.2-0.8,0.4-1.2,0.5c-0.3,0.1-0.7,0.1-1.1,0.1c-0.2,0-0.4,0-0.7,0
			c-0.3,0-0.6-0.2-0.9-0.4c-0.3-0.2-0.6-0.5-0.9-0.9s-0.5-0.7-0.6-1c-0.1-0.3-0.2-0.6-0.2-0.9c0-0.5,0-0.9,0.1-1.2
			c0.1-0.3,0.2-0.6,0.3-1L-304.3,126.9L-304.3,126.9z M-293.6,134.9v-12.3h-2.1v-1.5h7v1.5h-3.1v14L-293.6,134.9z"/>
		<path class="st0" d="M-287.1,134.9v-12.3h-1.6v-1.5h6.4v1.5h-3.1v14L-287.1,134.9z"/>
		<path class="st0" d="M-276.5,124.9c0-0.6-0.1-1.1-0.2-1.4s-0.3-0.6-0.7-0.9h-4.9v-1.5h10.7v1.5h-3.7c0.4,0.8,0.6,1.7,0.6,2.6
			s-0.5,2-1.5,3.1c-0.8,0.9-1.4,1.4-1.8,1.6c0,0.4,0.1,0.7,0.2,1c0,0.1,0.1,0.3,0.3,0.6c0.1,0.1,0.2,0.3,0.4,0.5
			c0.2,0.2,0.3,0.3,0.4,0.5l3.1,3.7l-0.4,0.4l-3.4-3.8c-1-1.2-1.8-2-2.2-2.5c-0.4-0.5-0.7-0.9-0.8-1.1c-0.1-0.2-0.2-0.4-0.3-0.6
			c-0.1-0.2-0.1-0.4-0.1-0.6c0-0.1,0-0.2,0.1-0.3c0.1-0.4,0.3-0.6,0.5-0.8c0.2-0.1,0.4-0.2,0.7-0.2c0.2,0,0.4,0,0.6,0h1.4
			C-276.8,126.2-276.5,125.6-276.5,124.9z"/>
		<path class="st0" d="M-259.8,122.6h-1.6v-1.5h13.3v1.5h-3.1v14l-1.6-1.7v-4.6c-0.7,0.4-1.4,0.5-2,0.5c-0.2,0-0.3,0-0.4,0
			c-1.3,0-2.5-0.6-3.4-1.7c-0.4-0.5-0.7-1-0.9-1.4c-0.2-0.4-0.3-0.9-0.3-1.5V122.6z M-258.1,122.6v4.5c0,0.4,0,0.8,0.1,1.1
			c0.1,0.3,0.2,0.6,0.5,0.8c0.2,0.2,0.5,0.4,0.8,0.5s0.6,0.1,1.1,0.1c0.4,0,0.6,0,0.9-0.1c0.2-0.1,0.5-0.3,0.9-0.5
			c0.5-0.4,0.9-0.8,1.2-1.4v-5C-252.6,122.6-258.1,122.6-258.1,122.6z"/>
		<path class="st0" d="M-246.5,134.9v-12.3h-1.6v-1.5h6.4v1.5h-3.1v14L-246.5,134.9z"/>
		<path class="st0" d="M-250.3,117.2c-0.5-0.1-1-0.2-1.4-0.2c-0.1,0-0.3,0-0.4,0s-0.3,0-0.6,0.1l-0.9-2.1c0.3,0,0.7,0,1,0
			s0.7,0.1,1,0.1c0.4,0.1,0.7,0.2,1,0.4c0,0,0.5,0.4,1.5,1.2c0.5,0.4,0.9,0.8,1.3,1.1c0.2,0.3,0.6,0.7,1.1,1.3
			c0.2,0.2,0.3,0.4,0.5,0.6c0.2,0.3,0.5,0.7,0.7,1.1h-0.5c-0.4-0.7-0.9-1.3-1.5-1.8c-0.7-0.7-1.1-1.1-1.3-1.2
			C-249.2,117.5-249.7,117.3-250.3,117.2z"/>
		<path class="st0" d="M-234.2,126.8v-4.2h-7.5v-1.5h13.3v1.5h-3.9v6.2h-2.6c-0.6,0-1.1,0-1.4,0.1s-0.7,0.2-1.1,0.5
			c-0.4,0.3-0.7,0.5-0.9,0.7c-0.2,0.2-0.4,0.5-0.5,0.9s-0.2,0.7-0.2,1.1c0,0.5,0.1,0.9,0.3,1.3c0.2,0.4,0.5,0.7,0.7,0.9
			c0.3,0.2,0.6,0.3,1.1,0.5c0.4,0.1,0.8,0.2,1.2,0.2c0.4,0,0.7,0,1.1-0.1c0.3-0.1,0.6-0.2,0.7-0.2c0.6-0.1,1.1-0.3,1.5-0.5
			c0.4-0.2,0.9-0.5,1.4-0.8l1.1,1.6c-0.4,0.3-0.8,0.6-1.2,0.8c-0.4,0.2-0.9,0.4-1.3,0.5c-0.2,0.1-0.5,0.1-0.9,0.2s-0.8,0.2-1.3,0.2
			s-1-0.1-1.4-0.2c-0.4-0.1-0.8-0.3-1.3-0.6c-0.5-0.3-0.9-0.5-1.2-0.8c-0.3-0.3-0.6-0.6-0.9-1.1c-0.3-0.4-0.5-0.8-0.6-1.2
			s-0.2-0.8-0.2-1.2c0-0.6,0-1.1,0-1.4s0.1-0.7,0.3-1.1c0.2-0.4,0.4-0.7,0.6-1c0.2-0.3,0.5-0.5,0.8-0.7c0.2-0.1,0.5-0.2,0.8-0.3
			s0.6-0.2,0.9-0.2c0.4,0,0.6-0.1,0.8-0.1c0.2,0,0.3,0,0.4,0c0.3,0,0.6,0,0.8,0.1C-234.4,126.8-234.3,126.8-234.2,126.8z"/>
		<path class="st0" d="M-232.8,115.4c-0.3,0.2-0.5,0.5-0.6,0.7c-0.1,0.3-0.2,0.6-0.2,1.1c0,0.3,0,0.6,0.1,0.9c0,0.3,0.3,0.9,0.7,1.7
			c0.1,0.3,0.3,0.6,0.6,1.1c-0.5-0.4-0.9-0.8-1.2-1.3c-0.3-0.5-0.6-1.1-0.8-1.7c-0.2-0.6-0.3-1.2-0.3-1.7c0-0.4,0.1-0.8,0.2-1.1
			c0.2-0.3,0.4-0.6,0.8-0.8c0.4-0.2,0.8-0.3,1.2-0.3c0.3,0,0.6,0.1,1,0.2c0.6,0.2,1.1,0.6,1.5,1.1c-0.1-0.1-0.3-0.1-0.6-0.2
			c-0.3-0.1-0.6-0.1-0.9-0.1C-231.9,115-232.4,115.1-232.8,115.4z"/>
		<path class="st0" d="M-216.9,122.6h-11.5v-1.5h16.4v1.5h-3.1v14l-1.8-1.7v-7.6c-0.3,0.1-0.6,0.2-0.8,0.3c-0.2,0.1-0.5,0.3-0.8,0.5
			c-0.4,0.4-0.8,0.8-1.1,1.4c-0.1,0.1-0.2,0.3-0.2,0.4c-0.1,0.3-0.3,0.5-0.3,0.8l-1.8-1.3l1-1.2c-0.2-0.5-0.5-0.9-1.1-1.1
			c-0.3-0.1-0.6-0.2-0.8-0.2c-0.1,0-0.4,0.1-0.8,0.2c-0.4,0.1-0.7,0.3-1,0.6c-0.2,0.3-0.4,0.5-0.4,0.8c-0.1,0.3-0.1,0.6-0.1,1.1
			c0,0.2,0.1,0.5,0.2,0.8c0.2,0.3,0.3,0.5,0.4,0.6c0.3,0.5,0.6,0.9,1.1,1.4c0,0,0.3,0.3,0.8,0.7l1.1,1l-0.4,0.6
			c-0.1-0.1-0.5-0.4-1.2-1c-0.4-0.4-0.8-0.7-1.1-1c-0.5-0.5-0.9-0.8-1-0.9c-0.6-0.6-1-1.2-1.2-1.9c-0.1-0.3-0.2-0.6-0.3-1
			c-0.1-0.3-0.2-0.6-0.2-0.9c0-0.3,0.1-0.6,0.2-0.9c0.3-0.8,0.9-1.3,1.7-1.6c0.4-0.1,0.6-0.1,0.8-0.1c0.4,0,0.8,0.1,1.4,0.3
			c0.5,0.2,1,0.5,1.5,1c0.4,0.4,0.6,0.7,0.8,1.1c0.2-0.2,0.4-0.4,0.7-0.6c0.3-0.2,0.5-0.4,0.7-0.5s0.4-0.2,0.7-0.4
			c0.3-0.2,0.5-0.3,0.7-0.3l0.9-0.2v-3.2H-216.9z"/>
	</g>
</g>
</svg>
